# xmcd
#
# Track frame offsets:
#	150
#	15553
#	37210
#	51308
#	67680
#	80415
#	95563
#	112280
#	127208
#	140938
#
# Disc length: 2113 seconds
#
# Revision: 2
# Processed by: cddbd v1.4PL0 Copyright (c) Steve Scherf et al.
# Submitted via: audiograbber 1.80
#
DISCID=97083f0a
DTITLE=Various Artist - 30 Years of #1 Hits Vol. 16
DYEAR=1900
DGENRE=
TTITLE0=Merle Haggard - Twinkle, Twinkle Lucky Star
TTITLE1=Willie Nelson - City Of New Orleans
TTITLE2=Ricky Van Shelton - I'll Leave This World Loving You
TTITLE3=Exile - She's A Miracle
TTITLE4=O'Kanes, The - Can't Stop My Heart From Loving You
TTITLE5=Ricky Van Shelton - Somebody Lied
TTITLE6=Janie Frickie - Always Have, Always Will
TTITLE7=Rodney Crowell - I Couldn't Leave You If I Tried
TTITLE8=Merle Haggard - That's The Way Love Goes
TTITLE9=Rosanne Cash - Way We Make A Broken Heart, The
EXTD=
EXTT0=Merle Haggard
EXTT1=Willie Nelson
EXTT2=Ricky Van Shelton
EXTT3=Exile
EXTT4=The O'Kanes
EXTT5=Ricky Van Shelton
EXTT6=Janie Frickie
EXTT7=Rodney Crowell
EXTT8=Merle Haggard
EXTT9=Rosanne Cash
PLAYORDER=
